<svg width="17" height="17" viewBox="0 0 17 17" fill="none" xmlns="http://www.w3.org/2000/svg">
<g clip-path="url(#clip0_2005_443)">
<path fill-rule="evenodd" clip-rule="evenodd" d="M8.49969 16.5006C12.911 16.5006 16.4996 12.9119 16.4996 8.50061C16.4996 4.08928 12.911 0.50061 8.49969 0.50061C4.08839 0.50061 0.499756 4.08928 0.499756 8.50061C0.499756 12.9119 4.08839 16.5006 8.49969 16.5006ZM9.48063 8.72237L12.1355 6.06689C12.1403 6.06214 12.1446 6.05711 12.1483 6.05219C12.3402 5.84573 12.3357 5.52224 12.1348 5.3213C11.9292 5.11572 11.5954 5.11572 11.3899 5.3213L8.73444 7.97735C8.73072 7.98107 8.72469 7.98107 8.72097 7.97735L6.06554 5.3213C5.86001 5.11572 5.52618 5.11572 5.32064 5.3213C5.11513 5.52687 5.11513 5.8607 5.32064 6.06626L7.97613 8.72237C7.97985 8.72609 7.97985 8.73212 7.97613 8.73584L5.32064 11.3919C5.11513 11.5975 5.11513 11.9313 5.32064 12.1369L5.32133 12.1376C5.42401 12.2393 5.55873 12.2909 5.69343 12.2909C5.82724 12.2909 5.96265 12.2405 6.06622 12.1369L8.72164 9.48086C8.72536 9.47714 8.73139 9.47714 8.73511 9.48086L11.3905 12.1369L11.3912 12.1376C11.4939 12.2393 11.6286 12.2909 11.7633 12.2909C11.8971 12.2909 12.0325 12.2405 12.1361 12.1369C12.3416 11.9313 12.3416 11.5975 12.1361 11.3919L9.48063 8.73584C9.47691 8.73212 9.47691 8.72609 9.48063 8.72237Z" fill="#E51C00"/>
</g>
<defs>
<clipPath id="clip0_2005_443">
<rect width="16" height="16" fill="white" transform="translate(0.5 0.5)"/>
</clipPath>
</defs>
</svg>
