<svg width="17" height="17" viewBox="0 0 17 17" fill="none" xmlns="http://www.w3.org/2000/svg">
<g clip-path="url(#clip0_2005_357)">
<path fill-rule="evenodd" clip-rule="evenodd" d="M8.49969 16.5C12.911 16.5 16.4996 12.9113 16.4996 8.5C16.4996 4.08867 12.911 0.5 8.49969 0.5C4.08839 0.5 0.499756 4.08867 0.499756 8.5C0.499756 12.9113 4.08839 16.5 8.49969 16.5ZM4.01613 8.86308L6.76385 11.4499C7.00313 11.6751 7.38085 11.6596 7.60083 11.4154L12.3492 6.14494C12.5681 5.90203 12.5457 5.52699 12.2997 5.31171C12.0588 5.10089 11.6931 5.12242 11.4787 5.3602L7.3944 9.88867C7.27711 10.0187 7.0767 10.0291 6.94654 9.91206L4.81467 7.99447C4.56292 7.76803 4.17197 7.80571 3.96257 8.06746C3.7727 8.30479 3.79279 8.65282 4.01613 8.86308Z" fill="#00499F"/>
</g>
<defs>
<clipPath id="clip0_2005_357">
<rect width="16" height="16" fill="white" transform="translate(0.5 0.5)"/>
</clipPath>
</defs>
</svg>
